<svg id="Layer_1" data-name="Layer 1" xmlns="http://www.w3.org/2000/svg" viewBox="0 0 319.13 319.13">
  <title>MM_LOGO-3</title>
  <rect fill="#333" x="255.31" width="63.83" height="63.83"/>
  <polygon fill="#333" points="0 127.65 0 191.48 0 255.31 0 319.13 63.83 319.13 127.65 319.13 191.48 319.13 191.48 255.31 127.65 255.31 63.83 255.31 63.83 191.48 63.83 127.65 0 127.65"/>
  <polygon fill="#333" points="0 0 0 63.83 63.83 63.83 127.65 63.83 127.65 127.65 127.65 191.48 191.48 191.48 255.31 191.48 255.31 255.31 255.31 319.13 319.13 319.13 319.13 127.65 255.31 127.65 191.48 127.65 191.48 63.83 191.48 0 0 0"/>
</svg>
